<svg width="24" height="24" viewBox="0 0 24 24" fill="none" xmlns="http://www.w3.org/2000/svg">
<path d="M11.4248 4.05078C11.8788 4.05087 12.2471 4.41906 12.2471 4.87305V11.7529H19.127C19.5809 11.7529 19.9491 12.1212 19.9492 12.5752C19.9492 17.2832 16.1328 21.0995 11.4248 21.0996C6.71677 21.0996 2.90039 17.2832 2.90039 12.5752C2.90048 7.86724 6.71683 4.05078 11.4248 4.05078ZM10.6025 5.74512C7.19034 6.15143 4.54403 9.0536 4.54395 12.5752C4.54395 16.3751 7.62485 19.4561 11.4248 19.4561C14.9464 19.456 17.8486 16.8097 18.2549 13.3975H11.4248C10.9708 13.3975 10.6025 13.0292 10.6025 12.5752V5.74512ZM14.3232 2.90723C17.8544 3.34666 20.6533 6.14562 21.0928 9.67676C21.1667 10.2723 20.6729 10.75 20.0898 10.75H13.832C13.5109 10.75 13.25 10.4891 13.25 10.168V3.91016C13.25 3.32708 13.7277 2.8333 14.3232 2.90723ZM14.8945 9.10547H19.3125C18.755 6.9462 17.0538 5.24504 14.8945 4.6875V9.10547Z" fill="#424242" stroke="#424242" stroke-width="0.2" stroke-linejoin="round"/>
</svg>
