<svg width="24" height="24" viewBox="0 0 24 24" fill="none" xmlns="http://www.w3.org/2000/svg">
<path d="M11.9021 4L18.2956 4.27583C19.5655 4.31115 20.6158 5.25959 20.7603 6.50136C21.0799 9.25009 21.0799 12.0257 20.7603 14.7745C20.6158 16.0162 19.5655 16.9647 18.2956 17H16.8319L15.9464 15.5659L18.2537 15.5424C18.7865 15.5276 19.2272 15.1297 19.2878 14.6087C19.5946 11.9701 19.5946 9.30571 19.2878 6.66711C19.2272 6.14613 18.7865 5.74822 18.2537 5.7334L11.9021 5.45874L5.74626 5.65749C5.21349 5.67231 4.77283 6.07023 4.71224 6.5912C4.40538 9.2298 4.40538 11.8942 4.71224 14.5328C4.77283 15.0538 5.21349 15.4517 5.74626 15.4665L8.32961 15.5659L7.44411 17L5.70437 16.9241C4.43449 16.8888 3.38416 15.9403 3.23975 14.6986C2.92008 11.9498 2.92008 9.17419 3.23975 6.42545C3.38416 5.18368 4.43449 4.23524 5.70437 4.19992L11.9021 4Z" fill="#424242" stroke="#424242" stroke-width="0.6" stroke-linecap="round"/>
<path fill-rule="evenodd" clip-rule="evenodd" d="M14.6848 19.952C14.6158 19.9584 14.5468 19.9645 14.4778 19.9704C13.6246 20.024 11.1519 19.9927 10.0222 19.9704C9.95316 19.9645 9.88417 19.9584 9.81519 19.952L9.29271 19.9034C8.49557 19.8293 8.01817 19.0196 8.36431 18.3287C9.10044 16.8594 10.1078 15.5292 11.3379 14.4022L11.4352 14.313C11.8908 13.8957 12.6092 13.8957 13.0648 14.313C14.2949 15.44 15.3996 16.8594 16.1357 18.3287C16.4818 19.0196 16.0044 19.8293 15.2073 19.9034L14.6848 19.952ZM10.771 18.6722C10.4976 18.6559 10.2244 18.635 9.95158 18.6097L9.79993 18.5956C10.432 17.4224 11.2593 16.3546 12.25 15.4344C12.6637 15.8186 13.0488 16.2286 13.4032 16.6612C13.8975 17.2647 14.3319 17.9122 14.7001 18.5956L14.5484 18.6097C14.2756 18.635 14.0024 18.6559 13.729 18.6722C13.7219 18.6726 13.7149 18.6731 13.7078 18.6738C13.0399 18.7216 11.4763 18.6928 10.771 18.6722Z" fill="#424242"/>
<path d="M13.6934 18.6752C13.6982 18.6747 13.703 18.6742 13.7078 18.6738M13.7078 18.6738C13.7149 18.6731 13.7219 18.6726 13.729 18.6722C14.0024 18.6559 14.2756 18.635 14.5484 18.6097L14.7001 18.5956C14.3319 17.9122 13.8975 17.2647 13.4032 16.6612C13.0488 16.2286 12.6637 15.8186 12.25 15.4344C11.2593 16.3546 10.432 17.4224 9.79993 18.5956L9.95158 18.6097C10.2244 18.635 10.4976 18.6559 10.771 18.6722C11.4763 18.6928 13.0399 18.7216 13.7078 18.6738ZM14.4778 19.9704C14.5468 19.9645 14.6158 19.9584 14.6848 19.952L15.2073 19.9034C16.0044 19.8293 16.4818 19.0196 16.1357 18.3287C15.3996 16.8594 14.2949 15.44 13.0648 14.313C12.6092 13.8957 11.8908 13.8957 11.4352 14.313L11.3379 14.4022C10.1078 15.5292 9.10044 16.8594 8.36431 18.3287C8.01817 19.0196 8.49557 19.8293 9.29271 19.9034L9.81519 19.952C9.88417 19.9584 9.95316 19.9645 10.0222 19.9704C11.1519 19.9927 13.6246 20.024 14.4778 19.9704Z" stroke="#424242" stroke-width="0.6" stroke-linejoin="round"/>
</svg>
