<svg width="24" height="24" viewBox="0 0 24 24" fill="none" xmlns="http://www.w3.org/2000/svg">
<path d="M16 2C16.2449 2.00003 16.4813 2.08996 16.6644 2.25272C16.8474 2.41547 16.9643 2.63975 16.993 2.883L17 3V4H18C18.7652 3.99996 19.5015 4.29233 20.0583 4.81728C20.615 5.34224 20.9501 6.06011 20.995 6.824L21 7V19C21 19.7652 20.7077 20.5015 20.1827 21.0583C19.6578 21.615 18.9399 21.9501 18.176 21.995L18 22H6C5.23479 22 4.49849 21.7077 3.94174 21.1827C3.38499 20.6578 3.04989 19.9399 3.005 19.176L3 19V7C2.99996 6.23479 3.29233 5.49849 3.81728 4.94174C4.34224 4.38499 5.06011 4.04989 5.824 4.005L6 4H7V3C7.00028 2.74512 7.09788 2.49997 7.27285 2.31463C7.44782 2.1293 7.68695 2.01777 7.94139 2.00283C8.19584 1.98789 8.44638 2.07067 8.64183 2.23426C8.83729 2.39786 8.9629 2.6299 8.993 2.883L9 3V4H15V3C15 2.73478 15.1054 2.48043 15.2929 2.29289C15.4804 2.10536 15.7348 2 16 2ZM19 9H5V18.625C5 19.33 5.386 19.911 5.883 19.991L6 20H18C18.513 20 18.936 19.47 18.993 18.785L19 18.625V9Z" fill="white"/>
<path d="M12.0001 12C12.245 12 12.4815 12.09 12.6645 12.2527C12.8475 12.4155 12.9645 12.6397 12.9931 12.883L13.0001 13V16C12.9998 16.2549 12.9022 16.5 12.7273 16.6854C12.5523 16.8707 12.3132 16.9822 12.0587 16.9972C11.8043 17.0121 11.5537 16.9293 11.3583 16.7657C11.1628 16.6021 11.0372 16.3701 11.0071 16.117L11.0001 16V14C10.7452 13.9997 10.5001 13.9021 10.3147 13.7272C10.1294 13.5522 10.0179 13.313 10.0029 13.0586C9.988 12.8042 10.0708 12.5536 10.2344 12.3582C10.398 12.1627 10.63 12.0371 10.8831 12.007L11.0001 12H12.0001Z" fill="white"/>
</svg>
