<svg width="24" height="24" viewBox="0 0 24 24" fill="none" xmlns="http://www.w3.org/2000/svg">
<path fill-rule="evenodd" clip-rule="evenodd" d="M13.4924 5.08684C12.6584 4.26707 11.3416 4.26707 10.5076 5.08684L6.07542 9.44333C5.96683 9.55007 5.89378 9.68911 5.86663 9.84075C5.33577 12.8062 5.29659 15.8421 5.75072 18.8209L5.85852 19.528H8.70999V13.4326C8.70999 13.0261 9.03168 12.6966 9.4285 12.6966H14.5715C14.9683 12.6966 15.29 13.0261 15.29 13.4326V19.528H18.1415L18.2493 18.8209C18.7034 15.8421 18.6642 12.8062 18.1334 9.84075C18.1062 9.68911 18.0332 9.55007 17.9246 9.44333L13.4924 5.08684ZM9.51265 4.02471C10.9027 2.65843 13.0973 2.65843 14.4873 4.02471L18.9195 8.38121C19.2458 8.70191 19.4653 9.11965 19.5468 9.57525C20.1068 12.7034 20.1481 15.9058 19.6691 19.0481L19.4959 20.1839C19.4243 20.6537 19.0293 21 18.5652 21H14.5715C14.1747 21 13.853 20.6705 13.853 20.264V14.1686H10.147V20.264C10.147 20.6705 9.82532 21 9.4285 21H5.43482C4.97068 21 4.57571 20.6537 4.50409 20.1839L4.33092 19.0481C3.85187 15.9058 3.8932 12.7034 4.45319 9.57525C4.53475 9.11965 4.75421 8.70191 5.08048 8.38121L9.51265 4.02471Z" fill="#424242" stroke="#424242" stroke-width="0.6"/>
</svg>
