<svg width="24" height="24" viewBox="0 0 24 24" fill="none" xmlns="http://www.w3.org/2000/svg">
<rect width="24" height="24" rx="12" fill="#B2E0E6"/>
<path d="M13.5 9.49878C13.5 9.8966 13.342 10.2781 13.0607 10.5594C12.7794 10.8407 12.3978 10.9988 12 10.9988C11.6022 10.9988 11.2206 10.8407 10.9393 10.5594C10.658 10.2781 10.5 9.8966 10.5 9.49878C10.5 9.10095 10.658 8.71942 10.9393 8.43812C11.2206 8.15681 11.6022 7.99878 12 7.99878C12.3978 7.99878 12.7794 8.15681 13.0607 8.43812C13.342 8.71942 13.5 9.10095 13.5 9.49878V9.49878Z" fill="#F5F6F7" stroke="#F5F6F7" stroke-width="0.863663"/>
<path d="M8.50146 14.2773V14.9978C8.50146 15.162 8.5338 15.3245 8.59662 15.4762C8.65943 15.6278 8.75151 15.7656 8.86758 15.8817C8.98365 15.9978 9.12145 16.0898 9.27311 16.1527C9.42477 16.2155 9.58731 16.2478 9.75146 16.2478H14.2515C14.4156 16.2478 14.5782 16.2155 14.7298 16.1527C14.8815 16.0898 15.0193 15.9978 15.1353 15.8817C15.2514 15.7656 15.3435 15.6278 15.4063 15.4762C15.4691 15.3245 15.5015 15.162 15.5015 14.9978V14.3328C15.5015 13.7658 15.16 13.2538 14.6225 13.0738C13.854 12.8163 12.8795 12.4978 12.0015 12.4978C11.1415 12.4978 9.99446 12.8028 9.31396 13.0578C8.80946 13.2463 8.50146 13.7388 8.50146 14.2773Z" fill="#F5F6F7"/>
<path fill-rule="evenodd" clip-rule="evenodd" d="M12.001 12.8733C11.205 12.8733 10.106 13.1618 9.44498 13.4093C9.10198 13.5378 8.87598 13.8793 8.87598 14.2778V14.9983C8.87598 15.4813 9.26798 15.8733 9.75098 15.8733H14.251C14.483 15.8733 14.7056 15.7811 14.8697 15.617C15.0338 15.4529 15.126 15.2304 15.126 14.9983V14.3333C15.126 13.9153 14.876 13.5548 14.5025 13.4298C13.7235 13.1683 12.8075 12.8733 12.001 12.8733V12.8733ZM9.18198 12.7068C9.88198 12.4453 11.077 12.1233 12.001 12.1233C12.951 12.1233 13.9835 12.4648 14.741 12.7183C15.443 12.9543 15.876 13.6183 15.876 14.3333V14.9983C15.876 15.4293 15.7048 15.8426 15.4 16.1473C15.0953 16.4521 14.682 16.6233 14.251 16.6233H9.75098C9.32 16.6233 8.90667 16.4521 8.60193 16.1473C8.29718 15.8426 8.12598 15.4293 8.12598 14.9983V14.2778C8.12598 13.5993 8.51598 12.9563 9.18198 12.7068V12.7068Z" fill="#F5F6F7"/>
</svg>
