<svg width="24" height="24" viewBox="0 0 24 24" fill="none" xmlns="http://www.w3.org/2000/svg">
<path d="M4.99414 12.8652C6.36375 12.7123 7.77883 12.7123 9.14844 12.8652C10.1704 12.9794 10.999 13.7835 11.1201 14.8174C11.284 16.2177 11.284 17.6329 11.1201 19.0332C10.9991 20.0672 10.1704 20.8712 9.14844 20.9854C7.77883 21.1383 6.36375 21.1383 4.99414 20.9854C3.97218 20.8711 3.14349 20.0672 3.02246 19.0332C2.85857 17.6329 2.85857 16.2177 3.02246 14.8174C3.1436 13.7835 3.97225 12.9795 4.99414 12.8652ZM14.8516 12.8652C16.2212 12.7123 17.6363 12.7123 19.0059 12.8652C20.0278 12.9795 20.8564 13.7835 20.9775 14.8174C21.1414 16.2177 21.1414 17.6329 20.9775 19.0332C20.8565 20.0672 20.0278 20.8711 19.0059 20.9854C17.6363 21.1383 16.2212 21.1383 14.8516 20.9854C13.8296 20.8712 13.0009 20.0672 12.8799 19.0332C12.716 17.6329 12.716 16.2177 12.8799 14.8174C13.001 13.7835 13.8296 12.9794 14.8516 12.8652ZM8.96191 14.5332C7.71621 14.3941 6.42637 14.3941 5.18066 14.5332C4.92186 14.5622 4.71919 14.767 4.69043 15.0127C4.54171 16.2835 4.54173 17.5671 4.69043 18.8379C4.71919 19.0836 4.92182 19.2894 5.18066 19.3184C6.42637 19.4575 7.71621 19.4575 8.96191 19.3184C9.2208 19.2894 9.42338 19.0837 9.45215 18.8379C9.60085 17.5671 9.60087 16.2835 9.45215 15.0127C9.42339 14.7669 9.22076 14.5621 8.96191 14.5332ZM18.8193 14.5332C17.5736 14.3941 16.2838 14.3941 15.0381 14.5332C14.7792 14.5621 14.5766 14.7669 14.5479 15.0127C14.3991 16.2835 14.3991 17.5671 14.5479 18.8379C14.5766 19.0837 14.7792 19.2894 15.0381 19.3184C16.2838 19.4575 17.5736 19.4575 18.8193 19.3184C19.0782 19.2894 19.2808 19.0836 19.3096 18.8379C19.4583 17.5671 19.4583 16.2835 19.3096 15.0127C19.2808 14.767 19.0781 14.5622 18.8193 14.5332ZM4.99414 3.01465C6.36375 2.86168 7.77883 2.86168 9.14844 3.01465C10.1704 3.12885 10.9991 3.93281 11.1201 4.9668C11.284 6.36715 11.284 7.78227 11.1201 9.18262C10.999 10.2165 10.1704 11.0206 9.14844 11.1348C7.77883 11.2877 6.36375 11.2877 4.99414 11.1348C3.97225 11.0205 3.1436 10.2165 3.02246 9.18262C2.85857 7.78227 2.85857 6.36715 3.02246 4.9668C3.14349 3.93283 3.97218 3.12888 4.99414 3.01465ZM14.8516 3.01465C16.2212 2.86168 17.6363 2.86168 19.0059 3.01465C20.0278 3.12888 20.8565 3.93283 20.9775 4.9668C21.1414 6.36715 21.1414 7.78227 20.9775 9.18262C20.8564 10.2165 20.0278 11.0206 19.0059 11.1348C17.6363 11.2877 16.2212 11.2877 14.8516 11.1348C13.8296 11.0206 13.001 10.2165 12.8799 9.18262C12.716 7.78227 12.716 6.36715 12.8799 4.9668C13.0009 3.93281 13.8296 3.12885 14.8516 3.01465ZM8.96191 4.68164C7.71621 4.54251 6.42637 4.54251 5.18066 4.68164C4.92182 4.71059 4.71919 4.91636 4.69043 5.16211C4.54173 6.43287 4.54171 7.71655 4.69043 8.9873C4.71919 9.23303 4.92186 9.43781 5.18066 9.4668C6.42637 9.60593 7.71621 9.60593 8.96191 9.4668C9.22076 9.43785 9.42339 9.23305 9.45215 8.9873C9.60087 7.71654 9.60085 6.43287 9.45215 5.16211C9.42338 4.91634 9.2208 4.71056 8.96191 4.68164ZM18.8193 4.68164C17.5736 4.54251 16.2838 4.54251 15.0381 4.68164C14.7792 4.71056 14.5766 4.91634 14.5479 5.16211C14.3991 6.43287 14.3991 7.71654 14.5479 8.9873C14.5766 9.23305 14.7792 9.43785 15.0381 9.4668C16.2838 9.60593 17.5736 9.60593 18.8193 9.4668C19.0781 9.43782 19.2808 9.23303 19.3096 8.9873C19.4583 7.71655 19.4583 6.43287 19.3096 5.16211C19.2808 4.91636 19.0782 4.71059 18.8193 4.68164Z" fill="#424242" stroke="#424242" stroke-width="0.2"/>
</svg>
