<svg width="24" height="24" viewBox="0 0 24 24" fill="none" xmlns="http://www.w3.org/2000/svg">
<path fill-rule="evenodd" clip-rule="evenodd" d="M11.9992 7.54752C9.54061 7.54752 7.54751 9.54061 7.54751 11.9992C7.54751 14.4578 9.54061 16.4509 11.9992 16.4509C14.4578 16.4509 16.4509 14.4578 16.4509 11.9992C16.4509 9.54061 14.4578 7.54752 11.9992 7.54752ZM11.9992 9.7411C10.7521 9.7411 9.7411 10.7521 9.7411 11.9992C9.7411 13.2463 10.7521 14.2573 11.9992 14.2573C13.2463 14.2573 14.2573 13.2463 14.2573 11.9992C14.2573 10.7521 13.2463 9.7411 11.9992 9.7411Z" fill="#424242"/>
<path fill-rule="evenodd" clip-rule="evenodd" d="M13.0894 3.16171C12.4934 2.54506 11.505 2.54506 10.909 3.16171L9.10204 5.03133H6.54749C5.71014 5.03133 5.03133 5.71014 5.03133 6.54749V9.10204L3.16171 10.909C2.54506 11.505 2.54506 12.4934 3.16171 13.0894L5.03133 14.8964V17.451C5.03133 18.2883 5.71014 18.9671 6.54749 18.9671H9.10204L10.909 20.8367C11.505 21.4534 12.4934 21.4534 13.0894 20.8367L14.8964 18.9671H17.451C18.2883 18.9671 18.9671 18.2883 18.9671 17.451V14.8964L20.8367 13.0894C21.4534 12.4934 21.4534 11.505 20.8367 10.909L18.9671 9.10204V6.54749C18.9671 5.71014 18.2883 5.03133 17.451 5.03133H14.8964L13.0894 3.16171ZM11.9992 4.75847L10.2639 6.55394C10.0347 6.79103 9.71915 6.92491 9.38942 6.92491H6.92491V9.38942C6.92491 9.71915 6.79103 10.0347 6.55394 10.2639L4.75847 11.9992L6.55394 13.7345C6.79103 13.9637 6.92491 14.2793 6.92491 14.609V17.0735H9.38942C9.71915 17.0735 10.0347 17.2074 10.2639 17.4445L11.9992 19.24L13.7345 17.4445C13.9637 17.2074 14.2793 17.0735 14.609 17.0735H17.0735V14.609C17.0735 14.2793 17.2074 13.9637 17.4445 13.7345L19.24 11.9992L17.4445 10.2639C17.2074 10.0348 17.0735 9.71916 17.0735 9.38943V6.92491H14.609C14.2793 6.92491 13.9637 6.79103 13.7345 6.55394L11.9992 4.75847Z" fill="#424242"/>
</svg>
