<svg width="24" height="24" viewBox="0 0 24 24" fill="none" xmlns="http://www.w3.org/2000/svg">
<path d="M18.4893 9.72208C18.5759 9.94389 18.5029 10.1912 18.3163 10.3493L17.1452 11.3538C17.175 11.5654 17.1912 11.7821 17.1912 12.0013C17.1912 12.2206 17.175 12.4373 17.1452 12.6489L18.3163 13.6534C18.5029 13.8115 18.5759 14.0588 18.4893 14.2806C18.3703 14.584 18.227 14.8746 18.062 15.1551L17.9349 15.3616C17.7564 15.642 17.5563 15.9072 17.3373 16.157C17.1777 16.3406 16.9127 16.4018 16.6747 16.3304L15.1683 15.8791C14.8059 16.1417 14.4057 16.361 13.9784 16.5267L13.6403 17.9825C13.5862 18.2145 13.3969 18.398 13.1481 18.4363C12.7749 18.4949 12.3909 18.5255 11.9987 18.5255C11.6066 18.5255 11.2225 18.4949 10.8493 18.4363C10.6005 18.398 10.4112 18.2145 10.3571 17.9825L10.0191 16.5267C9.59177 16.361 9.19152 16.1417 8.82912 15.8791L7.32546 16.3329C7.08747 16.4043 6.82244 16.3406 6.66287 16.1596C6.44382 15.9097 6.24369 15.6446 6.0652 15.3641L5.93809 15.1576C5.77312 14.8772 5.62978 14.5865 5.51079 14.2831C5.42425 14.0613 5.49727 13.814 5.68387 13.656L6.85489 12.6515C6.82514 12.4373 6.80891 12.2206 6.80891 12.0013C6.80891 11.7821 6.82514 11.5654 6.85489 11.3538L5.68387 10.3493C5.49727 10.1912 5.42425 9.94389 5.51079 9.72208C5.62978 9.41869 5.77312 9.12805 5.93809 8.8476L6.0652 8.64109C6.24369 8.36065 6.44382 8.0955 6.66287 7.84565C6.82244 7.66208 7.08747 7.6009 7.32546 7.67228L8.83183 8.12354C9.19422 7.86095 9.59448 7.64169 10.0218 7.47597L10.3598 6.0202C10.4139 5.7882 10.6032 5.60463 10.852 5.56639C11.2252 5.5052 11.6093 5.47461 12.0014 5.47461C12.3936 5.47461 12.7776 5.5052 13.1508 5.56384C13.3996 5.60208 13.5889 5.78565 13.643 6.01765L13.9811 7.47342C14.4084 7.63914 14.8086 7.8584 15.171 8.121L16.6774 7.66973C16.9154 7.59835 17.1804 7.66208 17.34 7.8431C17.559 8.09295 17.7591 8.3581 17.9376 8.63854L18.0648 8.84505C18.2297 9.1255 18.3731 9.41614 18.492 9.71953L18.4893 9.72208ZM12.0014 14.0409C13.1968 14.0409 14.165 13.1282 14.165 12.0013C14.165 10.8745 13.1968 9.96174 12.0014 9.96174C10.8061 9.96174 9.83788 10.8745 9.83788 12.0013C9.83788 13.1282 10.8061 14.0409 12.0014 14.0409Z" stroke="#424040" stroke-width="1.5354" stroke-linejoin="round"/>
</svg>
