<svg width="28" height="28" viewBox="0 0 28 28" fill="none" xmlns="http://www.w3.org/2000/svg">
<path d="M24.0922 10.457C24.2268 10.8019 24.1133 11.1865 23.823 11.4324L22.0018 12.9946C22.0481 13.3237 22.0733 13.6608 22.0733 14.0018C22.0733 14.3428 22.0481 14.6798 22.0018 15.0089L23.823 16.5712C24.1133 16.817 24.2268 17.2016 24.0922 17.5466C23.9072 18.0184 23.6842 18.4704 23.4277 18.9066L23.23 19.2278C22.9524 19.6639 22.6411 20.0763 22.3004 20.4649C22.0523 20.7504 21.6401 20.8455 21.27 20.7345L18.9272 20.0327C18.3636 20.4411 17.7411 20.7821 17.0765 21.0398L16.5508 23.3039C16.4666 23.6647 16.1722 23.9502 15.7853 24.0097C15.2048 24.1009 14.6076 24.1485 13.9977 24.1485C13.3878 24.1485 12.7905 24.1009 12.2101 24.0097C11.8231 23.9502 11.5287 23.6647 11.4446 23.3039L10.9188 21.0398C10.2543 20.7821 9.63179 20.4411 9.06818 20.0327L6.72961 20.7385C6.35947 20.8495 5.94728 20.7504 5.69912 20.4689C5.35843 20.0803 5.04718 19.6679 4.76958 19.2317L4.5719 18.9106C4.31533 18.4744 4.09241 18.0224 3.90734 17.5505C3.77275 17.2056 3.88631 16.821 4.17653 16.5751L5.99775 15.0129C5.95149 14.6798 5.92625 14.3428 5.92625 14.0018C5.92625 13.6608 5.95149 13.3237 5.99775 12.9946L4.17653 11.4324C3.88631 11.1865 3.77275 10.8019 3.90734 10.457C4.09241 9.9851 4.31533 9.53308 4.5719 9.09692L4.76958 8.77575C5.04718 8.33958 5.35843 7.92721 5.69912 7.53863C5.94728 7.25314 6.35947 7.15798 6.72961 7.269L9.07238 7.97083C9.63599 7.56242 10.2585 7.22142 10.923 6.96369L11.4488 4.69961C11.5329 4.33878 11.8274 4.05329 12.2143 3.99382C12.7947 3.89866 13.392 3.85107 14.0019 3.85107C14.6118 3.85107 15.209 3.89866 15.7895 3.98985C16.1764 4.04933 16.4708 4.33482 16.555 4.69564L17.0807 6.95972C17.7453 7.21746 18.3678 7.55846 18.9314 7.96686L21.2742 7.26504C21.6443 7.15401 22.0565 7.25314 22.3046 7.53466C22.6453 7.92325 22.9566 8.33562 23.2342 8.77178L23.4319 9.09295C23.6884 9.52912 23.9114 9.98114 24.0964 10.453L24.0922 10.457ZM14.0019 17.1739C15.861 17.1739 17.3667 15.7543 17.3667 14.0018C17.3667 12.2492 15.861 10.8297 14.0019 10.8297C12.1428 10.8297 10.637 12.2492 10.637 14.0018C10.637 15.7543 12.1428 17.1739 14.0019 17.1739Z" stroke="#424040" stroke-width="2.38793" stroke-linejoin="round"/>
</svg>
