<svg id="logo" xmlns="http://www.w3.org/2000/svg" width="194" height="40" viewBox="0 0 194 40">
  <defs>
    <style>
      .cls-1 {
        fill: #00626f;
      }

      .cls-1, .cls-2 {
        fill-rule: evenodd;
      }

      .cls-2 {
        fill: #12b5bc;
      }
    </style>
  </defs>
  <path class="cls-1" d="M52.743,19.455h0a3.205,3.205,0,0,0-3.2-3.211H39.289v21.65H32.757V10.414H50.995A8.5,8.5,0,0,1,59.28,18.89a8.521,8.521,0,0,1-7.021,8.67l8.088,8.095v4.5h-4.49l-12.76-13a2.64,2.64,0,0,1,1.879-4.488H49.54a3.206,3.206,0,0,0,3.2-3.21M87.97,32.087v5.807H76.15A13.73,13.73,0,0,1,62.462,23.7,13.932,13.932,0,0,1,76.444,10.4H87.97v5.8H76.876a7.944,7.944,0,0,0,0,15.887H87.97ZM113.585,37.9V27.067H99.732V37.9H93.226V10.414h6.506v10.8h13.853l0.117-10.8h6.415V37.9h-6.532ZM146.323,27H131.946v5.1h16.2v5.787H125.431V10.414h22.714v5.777h-16.2v5.037h14.377V27ZM181.31,8.156L168.1,21.835l-11.3-10.791a2.305,2.305,0,0,0-3.9,1.673V37.905h6.517V22.344l6.063,5.726a3.669,3.669,0,0,0,5.123-.081L185.828,12.68V8.156H181.31Zm1.95,10.829V37.9h-6.5V25.53ZM14.32,38.638A14.526,14.526,0,1,1,28.812,24.112,14.509,14.509,0,0,1,14.32,38.638m8.1-14.526a8.1,8.1,0,1,0-8.1,8.122,8.113,8.113,0,0,0,8.1-8.122"/>
  <path id="symbol" class="cls-2" d="M193.49,4.236A3.764,3.764,0,0,1,189.725,8h-3.763V4.236a3.764,3.764,0,0,1,7.528,0"/>
</svg>
